<?xml version="1.0" encoding="utf-8"?>
<!-- Generator: Adobe Illustrator 19.2.1, SVG Export Plug-In . SVG Version: 6.00 Build 0)  -->
<svg version="1.1" id="Layer_1" xmlns="http://www.w3.org/2000/svg" xmlns:xlink="http://www.w3.org/1999/xlink" x="0px" y="0px"
	 viewBox="0 0 512 512" style="enable-background:new 0 0 512 512;" xml:space="preserve">
<g>
	<path d="M201.7,137h-51.2c-4.7,0-8.5,3.8-8.5,8.5V265c0,4.7,3.8,8.5,8.5,8.5h51.2c4.7,0,8.5-3.8,8.5-8.5V145.5
		C210.3,140.8,206.4,137,201.7,137z M193.2,256.5h-34.1V154.1h34.1L193.2,256.5L193.2,256.5z"/>
	<path d="M201.7,410.1h-51.2c-4.7,0-8.5,3.8-8.5,8.5s3.8,8.5,8.5,8.5h51.2c4.7,0,8.5-3.8,8.5-8.5S206.4,410.1,201.7,410.1z"/>
	<path d="M201.7,444.2h-51.2c-4.7,0-8.5,3.8-8.5,8.5s3.8,8.5,8.5,8.5h51.2c4.7,0,8.5-3.8,8.5-8.5S206.4,444.2,201.7,444.2z"/>
	<path d="M244.4,495.4V51.7V34.6v-8.5c0-14.1-11.5-25.6-25.6-25.6h-85.3c-14.1,0-25.6,11.5-25.6,25.6v76.8V120v375.5l0,0
		c-0.2,9.4,7.4,17.1,16.7,17.1h101.8C236,512.5,243.9,505,244.4,495.4L244.4,495.4z M227.3,495.4H124.9V68.7h76.5
		c4.3,0,8.1-3,8.7-7.3c0.8-5.3-3.3-9.8-8.4-9.8h-76.8V26.1c0-4.7,3.8-8.5,8.5-8.5h85.3c4.7,0,8.5,3.8,8.5,8.5L227.3,495.4
		L227.3,495.4z"/>
</g>
</svg>