<?xml version="1.0" encoding="utf-8"?>
<!-- Generator: Adobe Illustrator 19.2.1, SVG Export Plug-In . SVG Version: 6.00 Build 0)  -->
<svg version="1.1" id="Layer_1" xmlns="http://www.w3.org/2000/svg" xmlns:xlink="http://www.w3.org/1999/xlink" x="0px" y="0px"
	 viewBox="0 0 512 512" style="enable-background:new 0 0 512 512;" xml:space="preserve">
<path d="M316.1,375.3l-0.7-256L213,119.6l0.7,256L316.1,375.3L316.1,375.3z M256.2,324.3l-0.4-162.1c0-4.7,3.8-8.5,8.5-8.6
	c4.7,0,8.5,3.8,8.6,8.5l0.4,162.1c0,4.7-3.8,8.5-8.5,8.6C260,332.8,256.2,329,256.2,324.3z"/>
<rect x="213.7" y="392.5" transform="matrix(1 -2.655774e-003 2.655774e-003 1 -1.0867 0.705)" width="102.4" height="34.1"/>
<rect x="212.9" y="85.3" transform="matrix(1 -2.655774e-003 2.655774e-003 1 -0.2483 0.7017)" width="102.4" height="17.1"/>
<path d="M315.2,68.1l-0.1-42.7c0-4.7-3.8-8.5-8.6-8.5l-85.3,0.2c-4.7,0-8.5,3.8-8.5,8.6l0.1,42.7L315.2,68.1z"/>
<path d="M316.4,503.3l-0.2-59.7l-102.4,0.3l0.2,59.7c0,4.7,3.8,8.5,8.6,8.5l85.3-0.2C312.6,511.9,316.4,508,316.4,503.3z"/>
</svg>