<?xml version="1.0" encoding="UTF-8" standalone="no"?>
<!-- Created with Inkscape (http://www.inkscape.org/) -->

<svg
   xmlns:dc="http://purl.org/dc/elements/1.1/"
   xmlns:cc="http://creativecommons.org/ns#"
   xmlns:rdf="http://www.w3.org/1999/02/22-rdf-syntax-ns#"
   xmlns:svg="http://www.w3.org/2000/svg"
   xmlns="http://www.w3.org/2000/svg"
   xmlns:sodipodi="http://sodipodi.sourceforge.net/DTD/sodipodi-0.dtd"
   xmlns:inkscape="http://www.inkscape.org/namespaces/inkscape"
   width="64px"
   height="64px"
   id="SvgPrologeIcon"
   version="1.1">
  <g
     id="layer1"
     class="svg-interaction"
     inkscape:label="Layer 1"
     inkscape:groupmode="layer">
    <path
       class="svg-prologe"
       d="M 41.8878,41.053592 23.966565,41.23286 c -1.250377,1.043009 -2.040234,2.112093 0.415164,3.155103 l 3.009937,-0.215121 c 2.862479,1.807882 1.849069,3.641842 0.0346,5.449724 l -5.397129,1.183163 1.1417,10.146525 18.889951,-0.07171 1.072507,-11.186274 -4.705189,-0.501949 c -1.6773,-0.708014 -3.517234,-3.356463 -0.207585,-5.162893 l 3.667279,-0.07171 c 2.473153,-0.973475 0.45805,-1.930653 0,-2.904129 z m -18.924547,9.999852 19.13842,-0.365053 c 0.343117,0.280843 0.582697,1.009545 0,1.564514 L 23.013576,52.044302 c -0.234387,-0.382436 -0.474861,-0.608422 -0.05033,-0.990858 z"
       id="path6123"
       inkscape:connector-curvature="0"
       sodipodi:nodetypes="cccccccccccccccccc" />
    <path
       class="svg-prologe"
       d="M 9.7709301,58.600275 C 20.061618,37.433844 36.19404,5.3852254 50.140299,2.8031222 46.445194,7.3028925 41.158513,11.802663 39.08372,16.302433 c 0.209166,1.290758 3.310475,-0.310628 6.171114,-1.671343 -2.082747,5.271178 -4.982122,6.459217 -7.713892,8.485282 l 7.071068,-2.185603 c -2.699862,4.21422 -5.399725,4.120962 -8.099587,5.528289 2.956992,1.015209 5.913984,0.26111 8.870976,-0.385695 -4.577135,4.776374 -10.550659,6.294506 -16.070609,8.870977 l 13.113617,-3.214122 c -2.733172,2.280858 -4.78054,5.24752 -9.77093,5.271159 1.971328,0.705859 3.942656,1.930642 5.913984,1.028519 l -2.442733,2.057039 -12.985052,0.257129 c -0.979299,0.987786 -1.9564,2.490563 -1.028519,4.114076 0.639029,1.491964 2.350649,1.196277 3.985511,1.028519 l 0.899955,1.028519 -6.942503,0.514259 6.942502,1.414213 c -2.941369,0.43212 -4.103959,1.88908 -10.413754,-0.128564 z"
       id="path6132"
       inkscape:connector-curvature="0"
       sodipodi:nodetypes="ccccccccccccccccccccc" />
    <path
       class="svg-prologe"
       d="M 14.656395,45.358094 C 20.124815,34.164763 31.869469,12.615908 43.583491,3.7030763 L 30.598439,14.63109 l 0.51426,-3.856945 -6.171115,12.342227 0.385696,-4.49977 z"
       id="path6134"
       inkscape:connector-curvature="0"
       sodipodi:nodetypes="ccccccc" />
  </g>
</svg>
