<?xml version="1.0" encoding="UTF-8" standalone="no"?>
<!-- Created with Inkscape (http://www.inkscape.org/) -->

<svg
   xmlns:dc="http://purl.org/dc/elements/1.1/"
   xmlns:cc="http://creativecommons.org/ns#"
   xmlns:rdf="http://www.w3.org/1999/02/22-rdf-syntax-ns#"
   xmlns:svg="http://www.w3.org/2000/svg"
   xmlns="http://www.w3.org/2000/svg"
   xmlns:sodipodi="http://sodipodi.sourceforge.net/DTD/sodipodi-0.dtd"
   xmlns:inkscape="http://www.inkscape.org/namespaces/inkscape"
   width="64px"
   height="64px"
   id="SvgReadingIcon"
   version="1.1">
  <g
     id="layer1"
     class="svg-interaction"
     inkscape:label="Layer 1"
     inkscape:groupmode="layer"
     style="display:none">
    <path
       class="svg-reading"
       style="fill:#060303;fill-opacity:1;stroke:#000000;stroke-width:0.78771478;stroke-linecap:butt;stroke-linejoin:round;stroke-miterlimit:4;stroke-opacity:1;stroke-dasharray:none"
       d="m 4.46875,14.9375 0,42.03125 6.78125,-2.1875 c 10.120082,-2.660848 18.969361,-2.683041 19.40625,1 l 0.0625,0 -0.15625,0.28125 -0.625,0.90625 5,0 C 34.92595,56.93631 34.076714,55.273936 34.5,56.65625 l -0.21875,-0.5625 0.0625,-0.34375 c 0.106165,-4.045683 9.750184,-2.982111 20.25,-0.1875 l 5.625,1.40625 0,-42.03125 -3,0 0.46875,38.75 L 47.21875,49 c 0,0 -4.65284,-1.718493 -6.90625,-0.9375 C 38.059088,48.843493 35,51.34375 35,51.34375 l -1.28125,2.03125 0,-38.4375 -0.40625,0 0,34.78125 -1.28125,0 0,3.8125 -1.34375,-2.0625 c 0,0 -3.246192,-2.469399 -5.625,-3.25 -2.378807,-0.780601 -7.3125,0.9375 -7.3125,0.9375 l -11.0625,4.6875 0.03125,-2.1875 -0.8125,0 0,-36.71875 -1.4375,0 z"
       id="rect4060"
       inkscape:connector-curvature="0" />
    <path
       class="svg-reading"
       d="m 31.683325,14.567318 -3.077243,-2.883701 c 0,0 -2.738749,-2.3580551 -5.928243,-2.7366302 -1.925982,-0.2286033 -4.757617,0.780602 -4.757617,0.780602 L 14.861755,11.132671 10.953713,12.849994 6.8757565,14.879559 6.3660119,54.221875 17.410478,49.538266 c 0,0 4.927531,-1.717323 7.306339,-0.936722 2.378808,0.780602 5.607189,3.278527 5.607189,3.278527 l 1.359319,2.029563 z"
       id="path4570-01"
       inkscape:connector-curvature="0"
       sodipodi:nodetypes="ccsccccccsccc" />
    <path
       class="svg-reading"
       d="m 33.709935,14.714895 3.929792,-3.400311 c 0,0 2.197881,-2.0117083 4.600978,-2.2228422 2.926614,-0.2571297 5.406777,0.780994 5.406777,0.780994 l 4.568586,1.7914832 3.702031,1.975315 1.934519,1.387759 -0.159951,39.362066 -10.462265,-4.68596 c 0,0 -4.667782,-1.718185 -6.921192,-0.937193 -2.253412,0.780993 -5.311611,3.280173 -5.311611,3.280173 l -1.287664,2.030582 z"
       id="path4570-0-8"
       inkscape:connector-curvature="0"
       sodipodi:nodetypes="ccsccccccsccc" />
    <path
       class="svg-reading"
       d="M 7.1632838,52.468316 C 7.1643168,50.69714 7.6863784,15.100904 7.7116446,15.078893 7.8786531,14.933401 11.852733,13.026682 13.544199,12.280498 14.73676,11.754405 16.28521,11.056542 16.9852,10.729693 19.68898,9.4672052 22.124043,9.1650434 24.197773,9.8347007 26.01806,10.422515 27.660472,11.495405 29.74597,13.459003 l 1.457117,1.371948 7.72e-4,18.223804 7.71e-4,18.223804 -0.803253,-0.59132 c -1.259719,-0.927353 -3.673347,-2.323059 -4.649609,-2.688686 -1.127255,-0.422178 -2.143019,-0.514927 -3.636034,-0.332009 -2.38483,0.292179 -3.935502,0.808372 -9.522946,3.170024 -2.9180292,1.233337 -5.3334417,2.242431 -5.3676548,2.242431 -0.034213,0 -0.062045,-0.274807 -0.061849,-0.610683 z"
       id="path4908"
       inkscape:connector-curvature="0" />
    <path
       class="svg-reading"
       d="m 52.128728,50.683139 c -5.015962,-2.243775 -6.253332,-2.693758 -8.467581,-3.079338 -1.864315,-0.324643 -3.074672,-0.207118 -4.393457,0.426604 -1.832465,0.880561 -4.504117,2.721542 -4.820975,3.322036 -0.09065,0.17179 -0.191891,0.312345 -0.224988,0.312345 -0.0331,0 -0.05669,-8.258686 -0.05244,-18.352636 l 0.0077,-18.352635 2.173668,-1.856307 c 3.5039,-2.992323 4.518983,-3.5040887 6.941607,-3.4996909 1.823271,0.00331 2.995471,0.2928622 6.131601,1.5146059 2.505097,0.975911 5.591151,2.508715 6.754379,3.354816 l 0.610683,0.444193 -6.43e-4,1.435405 c -3.85e-4,0.789473 0.08931,8.609325 0.199314,17.377449 0.110007,8.768124 0.182637,16.670939 0.161402,17.561811 l -0.03866,1.619767 -4.981651,-2.228425 z"
       id="path4910"
       inkscape:connector-curvature="0" />
    <path
       class="svg-reading"
       d="m 57.339932,12.702618 0.257129,38.312331"
       id="path4918"
       inkscape:connector-curvature="0" />
    <path
       class="svg-reading"
       style="fill:none;stroke:#ff1313;stroke-width:2;stroke-linecap:round;stroke-linejoin:miter;stroke-miterlimit:4;stroke-opacity:1;stroke-dasharray:none"
       d="M 32.404961,49.21741 C 25.56661,42.412978 15.8291,49.081271 7.1930188,50.635868"
       id="path4922"
       inkscape:connector-curvature="0"
       sodipodi:nodetypes="cc" />
    <path
       class="svg-reading"
       d="M 57.219826,51.409102 C 48.955728,49.736047 40.457719,40.789622 32.518453,49.217055"
       id="path4924"
       inkscape:connector-curvature="0"
       sodipodi:nodetypes="cc" />
  </g>
  <g
     inkscape:groupmode="layer"
     id="layer2"
     class="svg-interaction"
     inkscape:label="pages"
     style="display:inline">
    <path
       class="svg-reading"
       d="m 37.125,10.40625 c -2.066076,0.02892 -3.681814,0.665389 -4.59375,2.28125 l 0,35.625 c 2.156515,-4.615902 15.755756,-0.834982 22.878565,2.535763 L 55.28125,14.78125 C 48.647647,13.283964 41.743364,10.3416 37.125,10.40625 z M 25.09375,10.5625 c -4.852424,0.02198 -11.3106,3.120339 -16.75,4.625 L 8.0866203,52.458055 C 24.293096,46.972688 25.071302,43.871538 30.46875,48.09375 l 0,-35.21875 c -1.296133,-1.709105 -3.169353,-2.32249 -5.375,-2.3125 z m 32.25,4.625 0,37.6875 -2.0625,0 0.06428,-0.04824 -22.814282,-2.920509 0,0.28125 -2.0625,0 0,-0.09375 L 5.9652999,54.405301 7.315231,55.386528 6.3125,53.84375 l 0,-38.1875 c -0.5367512,0.106042 -1.0582568,0.197767 -1.5625,0.25 l 0,41.65625 c 8.102392,-2.467411 21.701273,-6.558336 25.162096,-3.353775 -0.475879,1.068716 -0.86085,1.751913 -1.33673,3.160593 L 34.875,57.3125 c -0.734766,-1.313587 -1.257867,-2.500175 -0.792614,-3.09375 4.725601,-3.380329 16.116592,-0.819115 25.948864,2.84375 l 0,-41.53125 c -0.881757,-0.07664 -1.777369,-0.18286 -2.6875,-0.34375 z"
       id="path4983"
       inkscape:connector-curvature="0"
       sodipodi:nodetypes="sccccssccccsccccccccccccccccccccc" />
  </g>
</svg>
